# xmcd
# 
# Track frame offsets:
#     150
#     18561
#     36883
#     49992
#     65243
#     78485
#     96164
#     116353
#     134134
#     150553
#     165317
#     181569
#     197713
#     211599
#     228654
#     245918
#     263842
#     282499
#     300555
#     316533
#     334392
# 
# Disc length: 4668
# 
# Revision: 0
# Processed by: cddbd v1.5.2PL0 Copyright (c) Steve Scherf et al.
# Submitted via: BonkEnc v1.0
# 
DISCID=2b123a15
DTITLE=Shania Twain - Shania Twain - Greatest Hits
DYEAR=2004
DGENRE=Country
TTITLE0=Forever And For Always
TTITLE1=I'm Gonna Getcha Good!
TTITLE2=Up!
TTITLE3=Ka-Ching!
TTITLE4=Come On Over
TTITLE5=Man! I Feel Like A Woman!
TTITLE6=That Don't Impress Me Much
TTITLE7=From This Moment On
TTITLE8=Honey I'm Home
TTITLE9=You're Still The One
TTITLE10=Don't Be Stupid (You Know I Love You)
TTITLE11=Love Gets Me Every Time
TTITLE12=No One Needs To Know
TTITLE13=You Win My Love
TTITLE14=(If You're Not In It For Love) I'm Outta Here!
TTITLE15=The Woman In Me (Needs The Man In You)
TTITLE16=Any Man Of Mine
TTITLE17=Whose Bed Have Your Boots Been Under?
TTITLE18=Party For Two (With Mark McGrath)
TTITLE19=Don't!
TTITLE20=I Ain't No Quitter
EXTD=YEAR: 2004
EXTT0=
EXTT1=
EXTT2=
EXTT3=
EXTT4=
EXTT5=
EXTT6=
EXTT7=
EXTT8=
EXTT9=
EXTT10=
EXTT11=
EXTT12=
EXTT13=
EXTT14=
EXTT15=
EXTT16=
EXTT17=
EXTT18=
EXTT19=
EXTT20=
PLAYORDER=
